<svg xmlns="http://www.w3.org/2000/svg" xmlns:xlink="http://www.w3.org/1999/xlink" width="569.178" height="511.955" viewBox="0 0 569.178 511.955"><defs><style>.a,.q,.r{fill:#fff;}.a{stroke:#707070;}.b{fill:url(#a);}.c{fill:#2e37a5;}.d{fill:#272f95;}.e{fill:#1c237b;}.f{fill:#eea671;}.g{fill:#fec194;}.h{fill:#4e3d3d;}.i{fill:#fd6173;}.j{clip-path:url(#b);}.k{fill:url(#c);}.l{fill:#1f2684;}.m{fill:#0d1358;}.n{fill:#febd8d;}.o{fill:#2a1919;}.p{fill:#392929;}.q{opacity:0.57;}</style><linearGradient id="a" x1="0.163" y1="-0.336" x2="0.922" y2="0.765" gradientUnits="objectBoundingBox"><stop offset="0" stop-color="#f70f47"/><stop offset="1" stop-color="#9e005d"/></linearGradient><clipPath id="b"><path class="a" d="M-41.163,30.689C49.337-89.311,362,0,362,0V480H0s39.935-79.6,30.9-200.378C23.84,185.316-80.893,83.369-41.163,30.689Z" transform="translate(-1681 -7007)"/></clipPath><linearGradient id="c" x1="0.163" y1="-0.336" x2="0.922" y2="0.765" gradientUnits="objectBoundingBox"><stop offset="0" stop-color="#f70f47"/><stop offset="1" stop-color="#64013b"/></linearGradient></defs><g transform="translate(2285.178 7031.955)"><path class="b" d="M25.211,24.546C65.911,3.8,118.427,2.226,163.854,21.658s37.024,94.661,37.024,94.661H1.316A157,157,0,0,1-1.938,76.96C-.943,57.221,5.145,34.773,25.211,24.546Z" transform="translate(-2194 -6791.329)"/><g transform="translate(-2285.178 -6716.439)"><rect class="c" width="391.086" height="20.218" rx="10.109" transform="translate(0 175.806)"/><path class="d" d="M11.811,0H306.452a11.811,11.811,0,0,1,11.811,11.811V176.8a11.811,11.811,0,0,1-11.811,11.811H11.811A11.811,11.811,0,0,1,0,176.8V11.811A11.811,11.811,0,0,1,11.811,0Z" transform="translate(31.758 0)"/><rect class="e" width="318.263" height="188.609" rx="3" transform="translate(40.926 0)"/></g><path class="f" d="M5.832,0H44.17a36.961,36.961,0,0,0,2.223,13.962C49.032,20.488,53.9,28.909,53.067,30.6s-9.592,6.835-22.788,7.645S2.637,33.416,1.109,31.162s4.237-10.168,5.834-17.2S5.832,0,5.832,0Z" transform="translate(-2117.254 -6810.313)"/><g transform="translate(-2151.866 -6919.553) rotate(-3)"><g transform="translate(0 0)"><path class="g" d="M22.9.6S78.021-2.44,83.931,5.159,80.463,40.006,77.3,60.4s-2.533,19.25-8.081,27.471-12.544,11.383-24.967,11S21.814,87.057,15.542,78.639s-3.015-25.716-5.548-29.09S3.088,43.478,1.309,37.027-.862,25.581,2.877,23.747s11.1,9.107,14.112,5.186S22.9.6,22.9.6Z" transform="translate(9.657 37.68)"/><path class="h" d="M16.153,22.7S20.133,2.915,45.945.262s44.266,15.68,47.04,17.851-3.044,5.17-.753,5.863,6.18-4.6,9.919-3.089,4.7,7.237,3.98,10.132S99.257,45.131,92.985,48.991,81.5,53.785,67.414,52.006,44.015,37.17,36.657,41.874s-6.875,26.174-10.976,26.9-9.77-7.719-13.268-6.031-1.078,9.228-2.895,7.478C6.262,67.083-1.427,50.981.231,39.1S16.153,22.7,16.153,22.7Z" transform="translate(0 0)"/><path class="h" d="M0,3.359S2.324-2.008,6.757.826,7.812,12.767,17.733,14.7,33.865,7.822,46.44,8.546s16.886,5.307,18.7,8.2S61.4,35.8,59.345,37.976,47.71,53.867,29.135,49.645c-13.114-2.98-26.3-19.123-27.805-27.108C-.118,17.833,0,3.359,0,3.359Z" transform="translate(20.734 86.882)"/><path class="i" d="M.909,3.372C2.419,1.047,5.831.378,7.9.114s5.752-.238,7.669,1.968a5.084,5.084,0,0,1,0,6.855c-1.612,1.578-3.02-.662-6.447-.543S3.912,10.667,1.859,9.412-.6,5.7.909,3.372Z" transform="translate(54.875 105.305)"/></g></g><g class="j" transform="translate(-397 7)"><path class="k" d="M25.211,24.546C65.911,3.8,118.427,2.226,163.854,21.658s37.024,94.661,37.024,94.661H1.316A157,157,0,0,1-1.938,76.96C-.943,57.221,5.145,34.773,25.211,24.546Z" transform="translate(-1797 -6798.329)"/><g transform="translate(-1888.178 -6723.439)"><rect class="l" width="391.086" height="20.218" rx="10.109" transform="translate(0 175.806)"/><path class="d" d="M11.811,0H306.452a11.811,11.811,0,0,1,11.811,11.811V176.8a11.811,11.811,0,0,1-11.811,11.811H11.811A11.811,11.811,0,0,1,0,176.8V11.811A11.811,11.811,0,0,1,11.811,0Z" transform="translate(31.758 0)"/><rect class="m" width="318.263" height="188.609" rx="3" transform="translate(40.926 0)"/></g><path class="f" d="M5.832,0H44.17a36.961,36.961,0,0,0,2.223,13.962C49.032,20.488,53.9,28.909,53.067,30.6s-9.592,6.835-22.788,7.645S2.637,33.416,1.109,31.162s4.237-10.168,5.834-17.2S5.832,0,5.832,0Z" transform="translate(-1720.254 -6817.313)"/><g transform="translate(-1754.866 -6926.553) rotate(-3)"><path class="n" d="M22.9.6S78.021-2.44,83.931,5.159,80.463,40.006,77.3,60.4s-2.533,19.25-8.081,27.471-12.544,11.383-24.967,11S21.814,87.057,15.542,78.639s-3.015-25.716-5.548-29.09S3.088,43.478,1.309,37.027-.862,25.581,2.877,23.747s11.1,9.107,14.112,5.186S22.9.6,22.9.6Z" transform="translate(9.657 37.68)"/><path class="o" d="M16.153,22.7S20.133,2.915,45.945.262s44.266,15.68,47.04,17.851-3.044,5.17-.753,5.863,6.18-4.6,9.919-3.089,4.7,7.237,3.98,10.132S99.257,45.131,92.985,48.991,81.5,53.785,67.414,52.006,44.015,37.17,36.657,41.874s-6.875,26.174-10.976,26.9-9.77-7.719-13.268-6.031-1.078,9.228-2.895,7.478C6.262,67.083-1.427,50.981.231,39.1S16.153,22.7,16.153,22.7Z" transform="translate(0 0)"/><path class="p" d="M0,3.359S2.324-2.008,6.757.826,7.812,12.767,17.733,14.7,33.865,7.822,46.44,8.546s16.886,5.307,18.7,8.2S61.4,35.8,59.345,37.976,47.71,53.867,29.135,49.645c-13.114-2.98-26.3-19.123-27.805-27.108C-.118,17.833,0,3.359,0,3.359Z" transform="translate(20.734 86.882)"/><path class="i" d="M.909,3.372C2.419,1.047,5.831.378,7.9.114s5.752-.238,7.669,1.968a5.084,5.084,0,0,1,0,6.855c-1.612,1.578-3.02-.662-6.447-.543S3.912,10.667,1.859,9.412-.6,5.7.909,3.372Z" transform="translate(54.875 105.305)"/></g></g><circle class="q" cx="19.162" cy="19.162" r="19.162" transform="translate(-2109.162 -6631.162)"/><circle class="r" cx="14.372" cy="14.372" r="14.372" transform="translate(-2104.372 -6626.372)"/></g></svg>